<svg id="Layer_1" data-name="Layer 1" xmlns="http://www.w3.org/2000/svg" viewBox="0 0 352.7 352"><defs><style>.cls-1{fill:#102636;}</style></defs><title>instagram-dark</title><path class="cls-1" d="M32,.75a32,32,0,0,0-32,32v288a32,32,0,0,0,32,32H320a32,32,0,0,0,32-32v-288a32,32,0,0,0-32-32Zm0,32H320v96H267.8a111.78,111.78,0,0,0-183.6,0H32Zm240,32v32h32v-32Zm-96,48a80,80,0,1,1-80,80A80.11,80.11,0,0,1,176,112.75Zm0,32a47.61,47.61,0,0,0-20.6,4.8,16,16,0,0,1-22.6,22.6,47.91,47.91,0,1,0,43.2-27.4Z"/></svg>