<svg id="Layer_1" data-name="Layer 1" xmlns="http://www.w3.org/2000/svg" viewBox="0 0 1778 445"><defs><style>.cls-1{fill:#e8efee;}.cls-2,.cls-3{fill:none;stroke:#e8efee;stroke-miterlimit:10;}.cls-2{stroke-width:4.64px;}.cls-3{stroke-width:4.51px;}</style></defs><title>Artboard 8</title><path class="cls-1" d="M1770.48,39c0-.15,0-.3,0-.46l-.08-.79a.22.22,0,0,0,0-.08h0A31.69,31.69,0,0,0,1764,21.21c-8.28-10.45-23.68-15.84-38.32-13.39a16.89,16.89,0,0,0-4.51,1.23c-2.15,1.07-4.56,3.82-5.84,5.29-3,3.43-6.27,7.55-7.94,12a13.58,13.58,0,0,0-.82,5.66,47.34,47.34,0,0,0,.61,5.28l0,.24.32,2.79.14,1.21-.1,1.11c0,.17,0,.34,0,.52a6.23,6.23,0,0,0,1.72,3.58,75.92,75.92,0,0,1,5.85,8.15c.93,1.41,1.88,2.88,2.89,4.28.13.19.47.54.81.92a27.67,27.67,0,0,1,3,3.6,10.66,10.66,0,0,0,2.82,1.87c9.42,5.22,18.85,6.64,25.21,3.82a37,37,0,0,0,7.06-4.6,49.79,49.79,0,0,0,7.93-7.25C1768.76,52.68,1770.78,46.1,1770.48,39Z"/><path class="cls-2" d="M246.3,281.94c22.79,12.75,39,35.55,39,65.69,0,49.07-35.54,86.93-102.38,86.93-64.53,0-100.46-37.48-100.46-86.16,0-30.53,13.9-52.55,35.54-65.3H3.27V241H281.46v40.95Zm-63.36,0c-47.14,0-79.22,25.11-79.22,55.64,0,32.84,28.6,51,79.22,51,51,0,81.13-18.93,81.13-51.39C264.07,306.67,230.85,281.94,182.94,281.94Z"/><path class="cls-2" d="M285.32,93c0,53.32-35.54,99.69-102,99.69-64.14,0-100.84-46.75-100.84-94.28,0-49.84,33.61-92.73,94.27-92.73h6.57V146.31h.38c49.08,0,81.15-22,81.15-59.11,0-30.14-17-51-42.89-57.57V6.06C261,14.17,285.32,47.4,285.32,93ZM164.77,146.31V52.42c-41,.78-64.52,14.69-64.52,46C100.25,127.38,122.66,144,164.77,146.31Z"/><path class="cls-3" d="M782.63,245.43,916.5,136.69H878L728.1,257.12V5.67H668.63V435.28H728.1V272L869.84,435.28H948Z"/><path class="cls-3" d="M1480.82,245.43l133.87-108.74H1576.2L1426.29,257.12V5.67h-59.47V435.28h59.47V272L1568,435.28h78.17Z"/><path class="cls-3" d="M1201.14,377.89c-16.31,33.83-49.53,57.39-94.84,57.39-55.58,0-108.13-30.81-108.13-117.19V124.78h65.24v200c0,54.37,26.58,77.33,59.8,77.33,42.29,0,76.12-38.67,76.12-122V124.78h65.24V429.24h-63.43Z"/><path class="cls-3" d="M1706.16,130.82h65.24V435.28h-65.24Z"/><path class="cls-1" d="M460.55,64.51c-5.69,6.59-13.72,13.68-22.17,16.31-8.23,2.55-17.12,1.07-25-2-3.93-1.53-8.66-3.57-11.79-6.49A57.35,57.35,0,0,1,394,62.78c-2.17-3.2-4.29-6.37-6.65-9.43-3.2-4.16-3.5-7.53-4.1-12.5l-1.79,1.8,74.81-3.19,14.1-.6-1.79-1.8c.54,9.93-1.79,19.55-8,27.45-1.42,1.8,1.11,4.36,2.54,2.54,6.81-8.67,9.65-19,9.05-30a1.84,1.84,0,0,0-1.8-1.8l-74.81,3.19-14.1.61c-.89,0-1.92.79-1.8,1.79.43,3.59.26,6.67,1.88,10.07,2.33,4.9,6.34,9.16,9.36,13.67,5.35,8,11.05,13.32,20,17,8.65,3.6,18.48,5.44,27.67,2.86,9.39-2.63,18.29-10.2,24.55-17.45C464.59,65.31,462.06,62.76,460.55,64.51Z"/><path class="cls-1" d="M459,39l0-.49-.07-.82s0-.06,0-.09h0a33.31,33.31,0,0,0-6.74-17.22c-8.68-11-24.84-16.61-40.2-14a18,18,0,0,0-4.73,1.29c-2.26,1.13-4.78,4-6.13,5.55-3.14,3.61-6.58,7.92-8.33,12.59a14.19,14.19,0,0,0-.86,5.94,51.62,51.62,0,0,0,.64,5.53l.05.26.34,2.92.15,1.27L393,42.8a4.86,4.86,0,0,0,0,.54,6.39,6.39,0,0,0,1.8,3.76,79.09,79.09,0,0,1,6.13,8.55c1,1.48,2,3,3,4.49a12.08,12.08,0,0,0,.86,1,28.6,28.6,0,0,1,3.09,3.78,11.35,11.35,0,0,0,2.95,2c9.89,5.47,19.79,7,26.46,4A39.31,39.31,0,0,0,444.68,66a52.36,52.36,0,0,0,8.32-7.6C457.17,53.35,459.3,46.44,459,39Z"/><path class="cls-1" d="M562.37,60.92c-5.75,6.51-13.88,13.52-22.36,16-8.24,2.46-17.13.87-25-2.3-3.9-1.58-8.62-3.67-11.72-6.63a57.24,57.24,0,0,1-7.5-9.63c-2.14-3.22-4.23-6.41-6.56-9.5-3.15-4.19-3.4-7.58-3.94-12.55l-1.79,1.8,74.85-2.35,14.1-.44-1.8-1.79c.44,9.94-2,19.51-8.32,27.35-1.43,1.78,1.09,4.34,2.54,2.54,6.91-8.59,9.85-18.94,9.37-29.89a1.82,1.82,0,0,0-1.79-1.8l-74.84,2.34-14.11.45a1.8,1.8,0,0,0-1.8,1.79c.39,3.6.2,6.67,1.78,10.09,2.28,4.92,6.24,9.23,9.21,13.78,5.25,8,10.9,13.44,19.8,17.25,8.63,3.7,18.41,5.64,27.65,3.16,9.42-2.52,18.39-10,24.73-17.17C566.43,61.73,563.9,59.18,562.37,60.92Z"/><path class="cls-1" d="M561.1,35.33c0-.16,0-.33,0-.49L561,34s0-.06,0-.08h0a33.21,33.21,0,0,0-6.54-17.29c-8.56-11.06-24.65-16.89-40-14.5a17.86,17.86,0,0,0-4.75,1.24c-2.26,1.1-4.82,4-6.18,5.48-3.18,3.57-6.68,7.84-8.48,12.49a14.24,14.24,0,0,0-.93,5.93,49.94,49.94,0,0,0,.59,5.54l0,.25L495,36l.13,1.27L495,38.43a4.87,4.87,0,0,0,0,.54,6.44,6.44,0,0,0,1.76,3.78,81.28,81.28,0,0,1,6,8.62c.95,1.49,1.93,3,3,4.52.14.21.49.57.85,1a29.51,29.51,0,0,1,3.05,3.82,11.66,11.66,0,0,0,2.93,2c9.83,5.58,19.71,7.19,26.4,4.31a38.8,38.8,0,0,0,7.47-4.75,51.57,51.57,0,0,0,8.4-7.52C559.13,49.71,561.34,42.82,561.1,35.33Z"/></svg>