<svg id="Layer_1" data-name="Layer 1" xmlns="http://www.w3.org/2000/svg" viewBox="0 0 1798 781"><defs><style>.cls-1{fill:#e8efee;}</style></defs><title>Artboard 3</title><path class="cls-1" d="M751.07,586.29C729.7,612,704.92,634.6,679,655.65c-6.25,5.07-12.59,10-18.92,15-2.42,1.9,2.13-1.62-.34.26l-2.16,1.66-5.05,3.84q-5.06,3.83-10.19,7.57A453.29,453.29,0,0,1,600,711.83c-7.33,4.18-14.82,8.09-22.47,11.64-1.84.85-3.7,1.67-5.56,2.47,3.11-1.34-.32.11-1.54.59q-5.82,2.31-11.74,4.34a268.06,268.06,0,0,1-44,10.93c-1.9.31-3.8.58-5.7.86-2.29.34.88-.13,1.1-.15l-3.27.39q-5.75.66-11.5,1.09-11.53.85-23.13.86t-23.26-.8q-5.41-.37-10.82-.91c-1.94-.19-3.89-.4-5.83-.62-1.33-.16-7.35-.94-3.14-.36A447.43,447.43,0,0,1,337.81,719c-7.51-2.73-14.91-5.7-22.32-8.7-2.08-.85.44.19.72.31l-3.15-1.35-4.69-2.06q-5.85-2.6-11.65-5.33-21.33-10-41.81-21.8c-6.4-3.69-12.72-7.54-18.82-11.71q-2.37-1.62-4.68-3.31c-1-.74-4.85-3.76-1.91-1.38-2.95-2.39-5.86-4.81-8.64-7.39s-5.42-5.25-7.94-8.06c-1.07-1.21-2.11-2.45-3.15-3.68-2.34-2.8-.36-.48.06.11-.63-.88-1.27-1.75-1.89-2.64a211.26,211.26,0,0,0-16.9-21.4c-5.24-5.75-10.7-11.29-15.66-17.3-.64-.77-3.11-4.15-1.34-1.65-1.3-1.83-2.63-3.63-3.93-5.46q-4.19-5.91-8.25-11.9c-9.67-14.21-18.9-28.71-28.36-43.06-10-15.1-20.28-29.88-31.41-44.14q-3.63-4.65-7.41-9.2c-1.32-1.58-2.66-3.14-4-4.72-.54-.65-1.08-1.3-1.61-2,0,.06-3.11-3.93-1.6-2,1.35,1.74-.34-.46-.5-.68-.66-.89-1.32-1.78-2-2.68q-1.45-2-2.85-4.06-3.47-5.07-6.58-10.36-2.67-4.53-5.06-9.21c-.85-1.66-1.67-3.35-2.47-5-.33-.73-.66-1.46-1-2.19-1.58-3.38.62,1.73-.23-.47a171.33,171.33,0,0,1-6.65-20.34q-1.35-5.4-2.26-10.88c-.13-.79-.24-1.58-.37-2.36-.51-2.9.31,3.37.06.43-.15-1.87-.39-3.72-.53-5.59-.58-7.68.34-15.24.13-22.88-.08-2.88-.7-5.83-1.05-8.69l-19.5,19.5,78-3.33,38.92-1.68,60.87-2.59,96-4.09,114-4.86,116.55-5,101.73-4.33,71.31-3,26.45-1.13,85.72-3.65,15.88-.68-19.5-19.5a418.23,418.23,0,0,1,.44,53.34c-.51,8.86-1.35,17.67-2.39,26.48-.45,3.78,0,.47,0-.25-.15,1.09-.3,2.19-.46,3.28q-.48,3.28-1,6.55c-.76,4.63-1.59,9.25-2.52,13.84a369.31,369.31,0,0,1-14,50.85q-2.07,5.82-4.32,11.56-1.22,3.06-2.48,6.1c.28-.67,1.53-3.52,0-.12-.55,1.26-1.09,2.51-1.65,3.76q-5.37,12-11.66,23.59-7.1,13-15.33,25.39-4.12,6.19-8.55,12.19c-.65.89-1.31,1.78-2,2.66-1,1.31-2.18,2.82-.48.66q-2.56,3.29-5.21,6.49c-6.46,7.87-8.28,20,0,27.58,7.15,6.56,20.67,8.42,27.58,0,49.19-60,76.38-133.64,82.67-210.65a416.69,416.69,0,0,0,.25-63.3c-.72-10.17-8.35-20-19.5-19.5l-78.47,3.34-38.72,1.65L663.65,328l-96.17,4.1L453.39,337,336.9,342l-101.55,4.33-71,3-26.43,1.13q-42.69,1.85-85.39,3.66l-15.89.68c-9.57.41-20.8,8.66-19.5,19.5,1.34,11.07.09,22,1.05,33.17a162.35,162.35,0,0,0,11,47.51,193.53,193.53,0,0,0,24.08,43.32C59,505.89,65.19,513,71.13,520.44c.76.94,1.5,1.9,2.26,2.84,1.41,1.72,0-.07-.26-.37,1.3,1.67,2.57,3.37,3.83,5.07q4.08,5.46,8,11c21.16,30,39,62.73,62.3,91.22,5.11,6.26,10.78,12,16.22,18,2.64,2.9,5.22,5.86,7.66,8.93-2-2.54.56.83,1.18,1.72,1.29,1.83,2.52,3.69,3.85,5.5,10.81,14.64,24,26.39,38.9,36.76,27.23,18.93,58,33.37,88.49,46.14,30.14,12.62,61.42,22.66,93.52,28.9,66.41,12.92,135.3,10,197.63-17.9,31.46-14.06,59.69-34.37,86.86-55.33,28-21.57,55.49-44,79.84-69.64q9-9.42,17.25-19.43c6.5-7.84,8.25-20,0-27.58C771.45,579.69,758,577.91,751.07,586.29Z"/><path class="cls-1" d="M739.14,357c-.07-1.44-.12-2.93-.23-4.43l-.69-7.44a6.34,6.34,0,0,0-.15-.81l.07,0c-5.74-58.11-27.38-113.45-61-155.93C598.5,89.06,452.15,37.91,313,61.15c-19.79,3.31-33.48,7.05-42.89,11.68C249.68,83,226.83,109.11,214.64,123.1c-28.45,32.66-59.64,71.75-75.52,114-6.31,16.87-8.62,33-7.77,53.79.7,16.38,3.34,34.58,5.85,50.14l.41,2.29,3.1,26.51,1.3,11.49-.92,10.57c-.1,1.66-.14,3.28-.08,4.93.43,10.42,6,21.9,16.32,34.05,22,25.83,39,52,55.6,77.46,8.8,13.43,17.83,27.37,27.43,40.65,1.25,1.84,4.45,5.13,7.74,8.71,7.51,8,17.77,19,28,34.24,1.58,2,7.25,7,26.78,17.82,89.58,49.58,179.22,63.08,239.6,36.31,22.48-10.14,45.64-27,67.17-43.77C636.28,581.62,663.8,559,685,533.37,722.77,487.51,742,424.92,739.14,357Z"/><path class="cls-1" d="M1675.57,547.84c-21.38,25.74-46.16,48.31-72.09,69.36-6.25,5.08-12.58,10-18.91,15-2.43,1.9,2.12-1.62-.35.27l-2.15,1.65q-2.52,1.93-5,3.84-5.07,3.82-10.19,7.57a453.29,453.29,0,0,1-42.37,27.84c-7.33,4.18-14.82,8.09-22.48,11.64q-2.76,1.28-5.55,2.47c3.11-1.33-.32.11-1.55.6-3.87,1.54-7.79,3-11.73,4.33a268.34,268.34,0,0,1-44.05,10.94c-1.9.3-3.8.57-5.71.85-2.29.34.88-.12,1.1-.15l-3.27.39q-5.73.66-11.49,1.09-11.55.87-23.13.86t-23.26-.8q-5.41-.37-10.82-.91-2.93-.29-5.83-.62c-1.33-.15-7.35-.94-3.14-.36a447.41,447.41,0,0,1-91.24-23.12c-7.51-2.74-14.92-5.7-22.32-8.71-2.08-.85.44.19.71.31l-3.14-1.35-4.7-2.06q-5.85-2.6-11.64-5.33-21.33-10-41.81-21.8c-6.41-3.68-12.72-7.54-18.82-11.71q-2.37-1.62-4.69-3.3c-1-.75-4.84-3.77-1.9-1.39-3-2.39-5.86-4.81-8.64-7.39s-5.43-5.25-7.94-8.06c-1.08-1.2-2.12-2.44-3.15-3.68-2.34-2.8-.36-.48.06.11-.63-.88-1.27-1.75-1.9-2.64a213.42,213.42,0,0,0-16.89-21.4c-5.24-5.75-10.71-11.29-15.66-17.29-.65-.78-3.12-4.15-1.35-1.66-1.29-1.83-2.62-3.63-3.92-5.46q-4.18-5.91-8.26-11.9c-9.66-14.21-18.89-28.71-28.35-43.05-10-15.1-20.29-29.89-31.41-44.15q-3.63-4.65-7.41-9.19c-1.32-1.59-2.67-3.15-4-4.73-.54-.65-1.07-1.3-1.6-2,0,.06-3.11-3.93-1.6-2,1.34,1.74-.34-.47-.5-.69-.66-.89-1.32-1.78-2-2.68q-1.46-2-2.85-4.06-3.46-5.07-6.59-10.36-2.66-4.52-5.06-9.2c-.85-1.67-1.67-3.36-2.46-5-.34-.73-.66-1.46-1-2.18-1.58-3.39.62,1.72-.23-.48a170.79,170.79,0,0,1-6.66-20.34q-1.33-5.4-2.25-10.88c-.14-.79-.24-1.58-.38-2.36-.5-2.9.31,3.37.07.43-.15-1.86-.39-3.72-.53-5.59-.58-7.68.33-15.24.13-22.88-.08-2.88-.71-5.82-1.05-8.69l-19.5,19.5q39-1.65,78-3.33l38.92-1.67,60.87-2.6,95.94-4.09,114-4.86,116.54-5,101.74-4.34,71.31-3L1665,325.3l85.72-3.65,15.88-.68-19.5-19.5a418.24,418.24,0,0,1,.43,53.34c-.5,8.86-1.34,17.68-2.38,26.48-.45,3.78,0,.47.05-.25-.15,1.1-.31,2.19-.47,3.28-.31,2.19-.65,4.37-1,6.56q-1.12,6.93-2.51,13.84a370.09,370.09,0,0,1-14,50.85c-1.38,3.87-2.82,7.73-4.33,11.55-.8,2-1.63,4.07-2.47,6.1.28-.67,1.53-3.52,0-.12-.55,1.26-1.1,2.51-1.66,3.77q-5.37,12-11.65,23.58-7.09,13-15.33,25.39-4.14,6.2-8.55,12.19c-.65.89-1.31,1.78-2,2.66-1,1.32-2.18,2.83-.49.67-1.71,2.18-3.45,4.34-5.2,6.48-6.46,7.88-8.29,20,0,27.58,7.15,6.57,20.66,8.42,27.57,0,49.2-60,76.38-133.64,82.67-210.65a416.69,416.69,0,0,0,.26-63.3c-.72-10.16-8.36-20-19.5-19.5l-78.47,3.35L1649.38,287l-61.23,2.61-96.18,4.1-114.08,4.86-116.5,5-101.54,4.33-71,3L1062.44,312q-42.69,1.84-85.39,3.67l-15.89.67c-9.57.41-20.8,8.66-19.5,19.5,1.33,11.07.08,22.05,1.05,33.18a162.59,162.59,0,0,0,11,47.5,194,194,0,0,0,24.09,43.33c5.68,7.61,11.88,14.76,17.82,22.16.76.94,1.49,1.91,2.26,2.84,1.41,1.72,0-.07-.26-.36,1.3,1.67,2.57,3.36,3.83,5.06q4.06,5.46,8,11c21.16,30,39,62.73,62.3,91.23,5.11,6.25,10.78,12,16.21,18,2.64,2.9,5.22,5.86,7.67,8.93-2-2.54.55.83,1.18,1.72,1.28,1.83,2.51,3.7,3.84,5.5,10.81,14.64,24,26.39,38.9,36.76,27.24,18.93,58,33.38,88.49,46.15,30.15,12.62,61.43,22.65,93.53,28.89,66.41,12.92,135.29,10,197.63-17.89,31.46-14.07,59.69-34.38,86.86-55.34,28-21.57,55.49-44,79.84-69.63q8.94-9.43,17.24-19.44c6.51-7.84,8.25-20,0-27.58C1696,541.24,1682.52,539.46,1675.57,547.84Z"/><path class="cls-1" d="M1663.64,318.59c-.07-1.44-.13-2.92-.23-4.42l-.7-7.45a4.92,4.92,0,0,0-.14-.81l.06,0c-5.74-58.11-27.37-113.45-61-155.93C1523,50.62,1376.65-.53,1237.51,22.7c-19.79,3.31-33.48,7.05-42.89,11.68-20.44,10.2-43.3,36.28-55.49,50.27-28.44,32.66-59.63,71.76-75.51,114-6.32,16.87-8.63,33-7.77,53.8.69,16.37,3.34,34.58,5.84,50.13l.41,2.3,3.1,26.5,1.31,11.49-.92,10.57c-.1,1.66-.14,3.28-.08,4.93.43,10.42,6,21.91,16.31,34.06,22,25.83,39,52,55.6,77.45,8.8,13.43,17.83,27.37,27.43,40.66,1.25,1.84,4.46,5.12,7.74,8.71a259.16,259.16,0,0,1,28,34.23c1.59,2,7.26,7,26.78,17.82C1317,620.88,1406.6,634.38,1467,607.61c22.48-10.13,45.63-27,67.17-43.77,26.63-20.67,54.14-43.26,75.31-68.92C1647.26,449.07,1666.53,386.47,1663.64,318.59Z"/></svg>