<svg id="Layer_1" data-name="Layer 1" xmlns="http://www.w3.org/2000/svg" viewBox="0 0 1812 781"><defs><style>.cls-1{fill:#102636;}</style></defs><title>Artboard 2</title><path class="cls-1" d="M752.59,581c-21.37,25.74-46.15,48.31-72.08,69.36-6.25,5.08-12.59,10-18.92,15-2.42,1.9,2.13-1.62-.34.27l-2.16,1.65q-2.52,1.93-5.05,3.84Q649,675,643.85,678.74a453.29,453.29,0,0,1-42.37,27.84c-7.33,4.18-14.81,8.09-22.47,11.64-1.84.85-3.7,1.67-5.56,2.47,3.11-1.33-.31.11-1.54.6q-5.82,2.31-11.74,4.33a267.81,267.81,0,0,1-44,10.93c-1.9.31-3.8.58-5.7.86-2.29.34.88-.13,1.1-.15l-3.27.39q-5.75.66-11.5,1.09c-7.69.58-15.41.85-23.13.86s-15.52-.27-23.26-.8q-5.42-.37-10.82-.91c-1.94-.19-3.89-.4-5.83-.62-1.33-.15-7.35-.94-3.14-.36a447.15,447.15,0,0,1-91.23-23.12c-7.51-2.74-14.92-5.7-22.33-8.71-2.08-.85.44.19.72.31L314.59,704l-4.7-2.06q-5.85-2.6-11.64-5.33c-14.22-6.69-28.2-13.95-41.82-21.8-6.4-3.68-12.72-7.54-18.82-11.71-1.57-1.08-3.14-2.18-4.68-3.3-1-.75-4.85-3.77-1.91-1.39-3-2.39-5.85-4.81-8.64-7.39s-5.42-5.25-7.94-8.06c-1.07-1.21-2.11-2.44-3.15-3.68-2.34-2.8-.36-.48.06.11-.63-.88-1.27-1.75-1.89-2.64a213.51,213.51,0,0,0-16.9-21.4c-5.24-5.75-10.7-11.29-15.66-17.29-.64-.78-3.11-4.15-1.34-1.66-1.3-1.83-2.63-3.63-3.92-5.46q-4.2-5.91-8.26-11.9c-9.67-14.21-18.9-28.71-28.35-43.05-10-15.1-20.29-29.89-31.42-44.15q-3.63-4.65-7.41-9.19c-1.32-1.59-2.66-3.15-4-4.73-.54-.65-1.08-1.3-1.61-2,0,.06-3.11-3.93-1.6-2,1.35,1.73-.34-.47-.5-.69-.66-.89-1.32-1.78-2-2.68-1-1.34-1.92-2.69-2.85-4.06q-3.47-5.07-6.58-10.36-2.67-4.51-5.06-9.21c-.85-1.66-1.67-3.35-2.46-5-.34-.73-.67-1.46-1-2.18-1.58-3.39.62,1.72-.23-.48A170.74,170.74,0,0,1,61.7,419q-1.34-5.4-2.26-10.88c-.13-.79-.24-1.58-.37-2.36-.51-2.9.31,3.37.07.43-.16-1.86-.4-3.72-.54-5.59-.58-7.68.34-15.24.13-22.88-.08-2.88-.7-5.82-1-8.69l-19.5,19.5,78-3.33,38.93-1.68L216,380.92,312,376.83,426,372l116.55-5,101.73-4.33,71.31-3L742,358.5l85.73-3.65,15.87-.68-19.5-19.5a416.41,416.41,0,0,1,.44,53.34c-.51,8.86-1.35,17.67-2.39,26.48-.45,3.78,0,.47.05-.25-.15,1.1-.3,2.19-.46,3.28q-.48,3.28-1,6.55c-.76,4.63-1.59,9.25-2.52,13.85a370.09,370.09,0,0,1-14,50.85c-1.37,3.87-2.81,7.73-4.32,11.55-.81,2-1.64,4.07-2.47,6.1.27-.67,1.52-3.52,0-.12-.55,1.26-1.09,2.51-1.65,3.76q-5.37,12-11.66,23.59-7.08,13-15.33,25.39-4.12,6.19-8.54,12.19c-.66.89-1.32,1.78-2,2.66-1,1.31-2.18,2.83-.48.67q-2.56,3.27-5.21,6.48c-6.46,7.88-8.28,20,0,27.58,7.15,6.57,20.67,8.42,27.58,0,49.19-60,76.38-133.64,82.67-210.65a416.69,416.69,0,0,0,.25-63.3c-.72-10.16-8.35-20-19.5-19.5l-78.47,3.35-38.72,1.65-61.23,2.61L569,326.88l-114.09,4.86-116.49,5L236.87,341l-71,3-26.43,1.12-85.4,3.67-15.88.67c-9.57.41-20.81,8.66-19.5,19.5,1.33,11.07.08,22.05,1,33.17a162.27,162.27,0,0,0,11,47.51A194.22,194.22,0,0,0,54.83,493c5.69,7.61,11.88,14.76,17.82,22.16.76.94,1.5,1.9,2.27,2.84,1.4,1.72,0-.07-.27-.36,1.3,1.67,2.57,3.36,3.84,5.06q4.07,5.46,8,11c21.16,30,39,62.73,62.3,91.23,5.11,6.25,10.78,12,16.22,18,2.64,2.9,5.22,5.86,7.66,8.93-2-2.54.56.83,1.18,1.72,1.29,1.83,2.52,3.7,3.85,5.5,10.81,14.64,24,26.39,38.9,36.76,27.23,18.93,58,33.38,88.49,46.15,30.14,12.62,61.42,22.65,93.52,28.89,66.41,12.92,135.3,10,197.63-17.89,31.46-14.07,59.69-34.38,86.86-55.34,28-21.57,55.49-44,79.84-69.63q9-9.43,17.25-19.44c6.5-7.84,8.25-20,0-27.58C773,574.44,759.55,572.66,752.59,581Z"/><path class="cls-1" d="M740.66,351.79c-.07-1.44-.12-2.92-.23-4.42l-.69-7.45a5,5,0,0,0-.15-.81l.07,0c-5.74-58.11-27.38-113.45-61-155.93C600,83.81,453.67,32.67,314.53,55.9c-19.78,3.31-33.48,7.05-42.89,11.68-20.44,10.2-43.29,36.28-55.48,50.27-28.45,32.66-59.64,71.76-75.51,114-6.32,16.87-8.63,33-7.78,53.79.7,16.38,3.34,34.59,5.85,50.14l.41,2.3,3.1,26.5,1.3,11.49-.91,10.57a47.76,47.76,0,0,0-.09,4.93c.43,10.42,5.95,21.9,16.32,34.06,22,25.82,39,52,55.6,77.45,8.8,13.43,17.83,27.37,27.43,40.66,1.25,1.83,4.45,5.12,7.74,8.71a260,260,0,0,1,28,34.23c1.58,2,7.25,7.05,26.78,17.82C394,654.08,483.63,667.58,544,640.81c22.48-10.13,45.64-27,67.17-43.77,26.64-20.67,54.15-43.26,75.31-68.92C724.29,482.27,743.55,419.67,740.66,351.79Z"/><path class="cls-1" d="M751.16,351.79a119.58,119.58,0,0,0-1.44-15.47l-4.83,11.86.07,0c3-1.67,5.56-5.53,5.2-9.06-6.85-67.48-33.4-132-79.95-181.8C628.62,112.79,574.52,81,517,61.71A424.15,424.15,0,0,0,329.47,43.2c-16.43,2.11-33.09,4.58-48.9,9.64C266.79,57.26,255.23,64.63,244.23,74c-23.35,19.79-43.42,44.59-62.22,68.62-21.87,28-42.7,58.47-53.61,92.6-5.29,16.54-6.78,34.08-6,51.36a340.9,340.9,0,0,0,6.39,53.19c.42,2-.39-3.63,0-.11.21,1.88.44,3.75.66,5.63l1.62,13.86c.65,5.6,1.86,11.42,1.94,17,0,3.46-.69,7-.91,10.45a50,50,0,0,0,4,22.59c7.25,17.36,21.58,30.78,32.71,45.67,22.16,29.68,40.82,61.75,62.34,91.89,8.83,12.38,20.45,22.55,29.76,34.61,3.62,4.69,6.51,10.35,10.86,14.41a77.5,77.5,0,0,0,10.45,7.82c30.37,19.91,65.17,35.09,99.73,46,31.49,9.93,64.84,16.09,97.94,15.18,30.63-.84,59.76-8.27,86.35-23.62,16.08-9.27,31.1-20.29,45.8-31.58s29-22.57,42.86-34.66c25.82-22.57,49.1-48,65.28-78.46,15.62-29.41,24.87-61.5,29-94.47a305.6,305.6,0,0,0,2-50.15c-.54-13.47-21.54-13.54-21,0,2.45,61.39-13.39,124.83-53.93,172.26-22.63,26.48-50.15,48.57-77.76,69.62-25.12,19.16-51.37,37.93-82.2,45.42-60.45,14.68-126.75-4.51-181.29-30.62-14.85-7.1-29.78-14.7-43.46-23.9-.88-.6-1.76-1.22-2.63-1.83-.43-.3-.84-.61-1.26-.92,0,0,1.64,1.32.8.62a29.35,29.35,0,0,1-2.64-2.35c-.15-.15-.76-1-.4-.48-.48-.62-2.13-3.18-3.08-4.49q-4.17-5.75-8.64-11.27c-9.47-11.76-20.47-22-28.2-33.14C235.25,516,225.63,501,215.82,486c-9.62-14.68-19.44-29.23-30-43.26-5.7-7.58-11.56-15-17.67-22.3-5-5.95-10-12.22-12.89-19.51-3.5-8.82-1-16.08-1.28-25.25-.18-5.89-1.36-12-2.05-17.83-2.71-23.18-7.18-46.24-8.44-69.56-.85-15.89.14-31.53,4.91-46.77,5-15.83,12.78-30.78,21.31-44.94,16.6-27.54,37.17-52.42,58.39-76.48,9.37-10.62,19.07-21,29.81-30.3,9.79-8.46,19.37-14.1,30.75-17.48,29.21-8.7,60.86-11.32,91.23-11.46a406.6,406.6,0,0,1,88.6,9.27c56,12.24,110.44,36.12,155.13,72.45,22,17.89,42,38.64,57.9,62.22a287.32,287.32,0,0,1,39,87.12,305.42,305.42,0,0,1,8.63,47.16l5.2-9.07-.07,0c-4.33,2.45-5.65,7.27-4.82,11.86-.79-4.34.14,1.94.24,3.09.21,2.26.35,4.52.45,6.79C730.78,365.24,751.78,365.32,751.16,351.79Z"/><path class="cls-1" d="M1677.09,542.59c-21.38,25.75-46.15,48.31-72.08,69.36-6.25,5.08-12.59,10-18.92,15-2.42,1.9,2.12-1.62-.35.27l-2.15,1.65q-2.52,1.93-5,3.84-5.07,3.82-10.19,7.58A451.2,451.2,0,0,1,1526,668.13c-7.33,4.19-14.82,8.09-22.48,11.64-1.84.85-3.69,1.67-5.55,2.48,3.11-1.34-.32.1-1.54.59q-5.82,2.31-11.74,4.33a268.34,268.34,0,0,1-44.05,10.94c-1.9.3-3.8.57-5.71.86l1.11-.16c-1.1.12-2.19.27-3.28.4q-5.73.64-11.49,1.08-11.55.87-23.13.86t-23.26-.8c-3.61-.24-7.22-.55-10.82-.9-2-.2-3.89-.4-5.83-.63-1.33-.15-7.35-.94-3.14-.36a447.41,447.41,0,0,1-91.24-23.12c-7.51-2.73-14.92-5.7-22.32-8.71-2.08-.84.44.19.72.31l-3.15-1.35c-1.57-.68-3.13-1.36-4.69-2.06q-5.87-2.6-11.65-5.32-21.33-10.05-41.81-21.8c-6.41-3.69-12.72-7.55-18.82-11.72q-2.37-1.62-4.69-3.3c-1-.75-4.84-3.77-1.9-1.39-3-2.38-5.86-4.81-8.64-7.39s-5.43-5.24-7.94-8.06c-1.08-1.2-2.11-2.44-3.15-3.68-2.34-2.79-.36-.47.06.12-.63-.88-1.27-1.76-1.89-2.64a212.68,212.68,0,0,0-16.9-21.4c-5.24-5.75-10.71-11.3-15.66-17.3-.65-.78-3.12-4.15-1.35-1.66-1.29-1.82-2.62-3.63-3.92-5.46q-4.19-5.89-8.26-11.9c-9.66-14.21-18.89-28.7-28.35-43.05-10-15.1-20.28-29.88-31.41-44.14q-3.63-4.67-7.41-9.2c-1.32-1.58-2.67-3.15-4-4.73l-1.61-1.95c0,.05-3.11-3.94-1.6-2,1.34,1.74-.34-.47-.5-.68-.66-.9-1.32-1.79-2-2.69q-1.45-2-2.85-4.06c-2.31-3.37-4.51-6.83-6.59-10.35q-2.65-4.53-5.05-9.21-1.29-2.5-2.47-5c-.34-.72-.66-1.46-1-2.18-1.58-3.39.62,1.72-.23-.48a170.19,170.19,0,0,1-6.66-20.34q-1.34-5.4-2.25-10.88c-.14-.78-.24-1.58-.38-2.36-.5-2.9.31,3.37.07.43-.15-1.86-.39-3.72-.53-5.59-.58-7.68.33-15.24.13-22.87-.08-2.88-.7-5.83-1.05-8.69l-19.5,19.5,78-3.34,38.92-1.67,60.87-2.6,96-4.09,114-4.86,116.54-5,101.74-4.34,71.31-3,26.45-1.13,85.72-3.65,15.88-.67-19.5-19.5a420.08,420.08,0,0,1,.44,53.34c-.51,8.85-1.35,17.67-2.39,26.47-.45,3.78-.05.47,0-.25-.15,1.1-.31,2.19-.46,3.29-.32,2.18-.66,4.37-1,6.55q-1.14,6.94-2.52,13.84a370.09,370.09,0,0,1-14,50.85c-1.38,3.87-2.82,7.73-4.33,11.55-.8,2-1.63,4.08-2.47,6.1.28-.67,1.53-3.51,0-.12-.55,1.26-1.1,2.52-1.66,3.77-3.58,8-7.46,15.88-11.65,23.58q-7.1,13-15.33,25.39-4.12,6.2-8.55,12.19c-.65.89-1.31,1.78-2,2.66-1,1.32-2.18,2.83-.48.67-1.72,2.18-3.45,4.34-5.21,6.48-6.46,7.88-8.28,20,0,27.58,7.15,6.57,20.66,8.42,27.57,0,49.2-60,76.38-133.63,82.68-210.65a416.56,416.56,0,0,0,.25-63.29c-.72-10.17-8.36-20-19.5-19.5l-78.47,3.34-38.72,1.65-61.23,2.61-96.17,4.1-114.09,4.86-116.5,5-101.54,4.32-71,3L1064,306.74l-85.39,3.66-15.89.68c-9.57.4-20.8,8.65-19.5,19.5,1.33,11.07.08,22,1.05,33.17a162.59,162.59,0,0,0,11,47.5,194,194,0,0,0,24.09,43.33c5.69,7.61,11.88,14.76,17.82,22.16.76.94,1.5,1.91,2.26,2.84,1.41,1.72,0-.07-.26-.36,1.3,1.67,2.57,3.37,3.83,5.06,2.72,3.65,5.37,7.33,8,11,21.16,30,39,62.73,62.3,91.23,5.11,6.26,10.78,12,16.21,18,2.65,2.9,5.22,5.86,7.67,8.93-2-2.54.55.83,1.18,1.72,1.28,1.84,2.51,3.7,3.84,5.5,10.81,14.64,24,26.39,38.91,36.76,27.23,18.93,58,33.38,88.48,46.15,30.15,12.62,61.43,22.65,93.53,28.9,66.41,12.91,135.29,10,197.63-17.9,31.46-14.07,59.69-34.38,86.86-55.33,28-21.58,55.49-44,79.84-69.64q8.94-9.43,17.24-19.44c6.51-7.84,8.25-20,0-27.58C1697.47,536,1684,534.21,1677.09,542.59Z"/><path class="cls-1" d="M1665.16,313.34c-.07-1.43-.13-2.92-.23-4.42l-.7-7.45a4.63,4.63,0,0,0-.14-.8l.06,0c-5.73-58.1-27.37-113.44-61-155.92C1524.52,45.37,1378.17-5.78,1239,17.46c-19.79,3.3-33.48,7.05-42.89,11.68-20.44,10.19-43.3,36.28-55.49,50.26-28.44,32.66-59.63,71.76-75.51,114-6.32,16.86-8.62,33-7.77,53.79.69,16.37,3.34,34.58,5.84,50.13l.42,2.3,3.09,26.5,1.31,11.5-.92,10.56c-.1,1.66-.14,3.28-.08,4.93.43,10.42,6,21.91,16.31,34.06,22,25.83,39.05,52,55.61,77.45,8.79,13.43,17.83,27.37,27.42,40.66,1.25,1.84,4.46,5.13,7.74,8.71a258.69,258.69,0,0,1,28,34.24c1.59,2,7.26,7,26.78,17.81,89.58,49.58,179.23,63.09,239.61,36.31,22.48-10.13,45.63-27,67.17-43.77,26.63-20.67,54.15-43.26,75.31-68.92C1648.79,443.82,1668.05,381.22,1665.16,313.34Z"/><path class="cls-1" d="M1675.66,313.34a117.7,117.7,0,0,0-1.45-15.46l-4.82,11.85.06,0c3-1.68,5.56-5.53,5.2-9.07-6.85-67.48-33.39-132-79.94-181.8-41.59-44.49-95.69-76.32-153.19-95.57A424.21,424.21,0,0,0,1254,4.75c-16.42,2.11-33.09,4.58-48.9,9.65-13.77,4.41-25.33,11.78-36.33,21.1-23.35,19.8-43.43,44.59-62.22,68.63-21.87,28-42.71,58.46-53.62,92.59-5.28,16.54-6.77,34.08-6,51.36a340.89,340.89,0,0,0,6.38,53.19c.43,2-.39-3.63,0-.1q.32,2.81.65,5.62l1.62,13.86c.66,5.6,1.87,11.43,1.94,17,0,3.45-.68,7-.9,10.44a50,50,0,0,0,4,22.59c7.25,17.36,21.59,30.78,32.71,45.67,22.17,29.69,40.83,61.75,62.34,91.89,8.84,12.38,20.46,22.55,29.77,34.61,3.62,4.69,6.51,10.35,10.85,14.41a76,76,0,0,0,10.46,7.82c30.36,19.91,65.17,35.09,99.73,46,31.48,9.93,64.83,16.09,97.94,15.19,30.63-.84,59.76-8.28,86.35-23.62,16.08-9.28,31.09-20.29,45.79-31.59s29-22.56,42.86-34.66c25.83-22.57,49.11-48,65.28-78.46,15.63-29.41,24.88-61.5,29-94.47a307.78,307.78,0,0,0,2-50.15c-.54-13.47-21.54-13.54-21,0,2.44,61.39-13.4,124.84-53.93,172.26-22.63,26.48-50.16,48.58-77.76,69.62-25.12,19.16-51.38,37.94-82.2,45.42-60.45,14.68-126.75-4.51-181.3-30.61-14.84-7.11-29.78-14.7-43.45-23.91-.89-.6-1.76-1.21-2.64-1.83l-1.25-.92s1.63,1.32.8.62a31,31,0,0,1-2.65-2.34c-.15-.16-.75-.95-.39-.49-.48-.62-2.13-3.17-3.09-4.49-2.77-3.83-5.66-7.58-8.63-11.27-9.47-11.75-20.47-22-28.21-33.14-10.21-14.68-19.83-29.76-29.64-44.71-9.62-14.67-19.45-29.23-30-43.25-5.7-7.58-11.56-15.05-17.66-22.31-5-5.94-10-12.22-12.89-19.51-3.5-8.81-1-16.07-1.29-25.25-.17-5.89-1.36-12-2-17.83-2.71-23.18-7.18-46.24-8.44-69.55-.86-15.89.14-31.53,4.91-46.78,4.94-15.83,12.77-30.78,21.31-44.94,16.6-27.54,37.16-52.41,58.39-76.48,9.37-10.62,19.07-21,29.8-30.3,9.8-8.46,19.37-14.09,30.75-17.48,29.22-8.7,60.87-11.31,91.24-11.46A405.9,405.9,0,0,1,1393,31.69c56.06,12.23,110.44,36.12,155.14,72.44,22,17.89,42,38.64,57.9,62.22a287.81,287.81,0,0,1,39,87.12,305.62,305.62,0,0,1,8.62,47.16l5.2-9.07-.06,0c-4.33,2.45-5.65,7.27-4.83,11.86-.78-4.34.14,1.94.25,3.09.21,2.26.34,4.52.45,6.79C1655.28,326.8,1676.28,326.87,1675.66,313.34Z"/></svg>