<svg id="Layer_1" data-name="Layer 1" xmlns="http://www.w3.org/2000/svg" viewBox="0 0 352.7 352"><defs><style>.cls-1{fill:#102636;}</style></defs><title>twitter-dark</title><path class="cls-1" d="M353.05,67.4a142.5,142.5,0,0,1-41.6,11.4,72.35,72.35,0,0,0,31.8-40,146.38,146.38,0,0,1-46,17.6,72.31,72.31,0,0,0-125.1,49.4,74.5,74.5,0,0,0,1.9,16.5A205.85,205.85,0,0,1,24.85,46.7a72.42,72.42,0,0,0,22.4,96.6,70,70,0,0,1-32.8-9.1v.9a72.34,72.34,0,0,0,58.1,71,71,71,0,0,1-19.1,2.5,67.46,67.46,0,0,1-13.6-1.3,72.62,72.62,0,0,0,67.6,50.3,145.43,145.43,0,0,1-89.9,31,163.73,163.73,0,0,1-17.2-1.1A205.1,205.1,0,0,0,111.25,320c133.1,0,205.9-110.2,205.9-205.9,0-3.1-.1-6.3-.2-9.3A147.55,147.55,0,0,0,353.05,67.4Z"/></svg>