<svg id="Layer_1" data-name="Layer 1" xmlns="http://www.w3.org/2000/svg" viewBox="0 0 352.7 352"><defs><style>.cls-1{fill:#e8efee;}</style></defs><title>twitter</title><path class="cls-1" d="M353.1,66.6A142.5,142.5,0,0,1,311.5,78a72.35,72.35,0,0,0,31.8-40,146.38,146.38,0,0,1-46,17.6A72.31,72.31,0,0,0,172.2,105a74.5,74.5,0,0,0,1.9,16.5A205.85,205.85,0,0,1,24.9,45.9a72.42,72.42,0,0,0,22.4,96.6,70,70,0,0,1-32.8-9.1v.9a72.34,72.34,0,0,0,58.1,71,71,71,0,0,1-19.1,2.5,67.46,67.46,0,0,1-13.6-1.3,72.62,72.62,0,0,0,67.6,50.3,145.43,145.43,0,0,1-89.9,31,141,141,0,0,1-17.3-1,205.1,205.1,0,0,0,110.9,32.5c133.1,0,205.9-110.2,205.9-205.9,0-3.1-.1-6.3-.2-9.3A146.66,146.66,0,0,0,353.1,66.6Z"/></svg>